<?xml version="1.0" encoding="UTF-8"?>
<svg width="115px" height="36px" viewBox="0 0 115 36" version="1.1" xmlns="http://www.w3.org/2000/svg" xmlns:xlink="http://www.w3.org/1999/xlink">
    <!-- Generator: Sketch 47.1 (45422) - http://www.bohemiancoding.com/sketch -->
    <title>PBG Logo blue (vector free)</title>
    <desc>Created with Sketch.</desc>
    <defs>
        <path d="M7.73052863,4.19300699 C7.68373148,4.52727273 7.5899372,4.7954046 7.45094567,4.99080919 C7.31035425,5.18861139 7.14256448,5.33546454 6.93917688,5.43956044 C6.7157905,5.55344655 6.46600573,5.62817183 6.1976221,5.67132867 C5.90783977,5.71788212 5.6136577,5.73626374 5.32327541,5.73626374 L3.6883751,5.73626374 L4.10314981,2.64875125 L5.85764283,2.64875125 C6.14742516,2.64875125 6.43560758,2.72587413 6.71399061,2.77222777 C6.96217548,2.81378621 7.17456253,2.91508492 7.34615206,3.02057942 C7.4915432,3.10989011 7.60053655,3.25154845 7.67813182,3.42597403 C7.757127,3.6041958 7.77492592,3.87112887 7.73052863,4.19300699 Z M10.2725736,4.31448551 C10.3341699,3.90529471 10.3341699,3.47672328 10.2725736,3.04115884 C10.2063777,2.57302697 10.0293885,2.14545455 9.74600573,1.77042957 C9.462823,1.3952048 9.05124809,1.03576424 8.52168039,0.8 C8.00431193,0.569430569 7.32735321,0.403396603 6.50960307,0.403396603 L1.97767941,0.403396603 L0.199787818,13.3144855 L2.65923785,13.3144855 L3.37319432,7.98161838 L5.57526005,7.98161838 C6.38701055,7.98161838 7.08576794,7.87632368 7.65293336,7.65034965 C8.22089873,7.42417582 8.69806963,7.13426573 9.07144686,6.77942058 C9.44882385,6.42057942 9.73400646,6.01178821 9.91859521,5.55964036 C10.0919846,5.13446553 10.2109774,4.71708292 10.2725736,4.31448551 Z" id="path-1"></path>
        <path d="M12.7542223,11.3944056 C12.3186489,11.3944056 11.9930687,11.3192807 11.7866813,11.1706294 C11.7286848,11.1288711 11.5740943,11.0177822 11.6376904,10.581019 C11.6684885,10.366034 11.7562832,10.1962038 11.906674,10.0615385 C12.0876629,9.8987013 12.316849,9.76863137 12.5872325,9.67552448 C12.8814145,9.57442557 13.2069947,9.49110889 13.5545735,9.45554446 C13.9217511,9.41778222 14.2813292,9.38501499 14.6233083,9.38501499 L14.9358893,9.38501499 L14.9308896,9.42937063 C14.9020913,9.65814186 14.8358954,9.9012987 14.7343016,10.1378621 C14.6365075,10.3652348 14.497116,10.5784216 14.3191269,10.765035 C14.1441376,10.9490509 13.9251509,11.1032967 13.6671666,11.2201798 C13.415182,11.3346653 13.1080007,11.3944056 12.7542223,11.3944056 Z M14.5855106,13.3144855 L16.8179745,13.3144855 L16.8179745,12.823976 C16.8179745,12.6253746 16.8151747,12.4127872 16.8361734,12.1912088 C16.8571721,11.9672328 16.8831705,11.7162837 16.9277678,11.4367632 L17.4953332,7.36423576 C17.5461301,6.96583417 17.5247314,6.57762238 17.4343369,6.20979021 C17.3387428,5.81958042 17.1447546,5.47012987 16.859972,5.17062937 C16.580389,4.87792208 16.2046119,4.64455544 15.7424401,4.47732268 C15.2952674,4.31568432 14.7505006,4.23376623 14.1237388,4.23376623 C13.5223755,4.23376623 12.8990135,4.34005994 12.2714517,4.54985015 C11.6384903,4.76103896 11.0551259,5.08251748 10.5371575,5.5048951 L10.2101774,5.77182817 L11.4872996,7.33026973 L11.8020804,7.12667333 C11.9616706,7.02317682 12.1248607,6.91468531 12.2910505,6.8 C12.431642,6.7024975 12.5848326,6.61578422 12.7460228,6.54265734 C12.9048131,6.47012987 13.0888019,6.40819181 13.2915895,6.35824176 C13.4877776,6.31048951 13.7167636,6.28611389 13.972548,6.28611389 C14.2383318,6.28611389 14.4595183,6.32307692 14.6297079,6.3952048 C14.7902982,6.46373626 14.9170904,6.55384615 15.0072849,6.66293706 C15.1018792,6.77782218 15.1652753,6.88171828 15.2002732,7.02257742 C15.235071,7.16203796 15.2420706,7.42017982 15.2210719,7.42017982 L14.4757173,7.42017982 C13.8515554,7.42017982 13.2487921,7.49070929 12.6838266,7.58981019 C12.102862,7.69230769 11.5726943,7.87392607 11.1075227,8.10989011 C10.6259521,8.35404595 10.2213767,8.68211788 9.90539601,9.07492507 C9.57781599,9.48191808 9.3726285,9.99080919 9.29683312,10.5764236 C9.23103713,11.035964 9.26323517,11.4527473 9.39242729,11.8131868 C9.5218194,12.1752248 9.7268069,12.4851149 10.0013902,12.7326673 C10.2685739,12.974026 10.594554,13.1568432 10.9693311,13.2755245 C11.3275093,13.389011 11.7170855,13.4465534 12.1274605,13.4465534 C12.7864203,13.4465534 13.3933833,13.3274725 13.9305506,13.0923077 C14.1669362,12.989011 14.3957222,12.8541459 14.6163088,12.6883117 C14.6141089,12.7258741 14.611909,12.7984016 14.6097092,12.835964 L14.5855106,13.3144855 Z" id="path-3"></path>
        <path d="M21.5366868,9.8015984 L20.2237668,4.33286713 L17.5987269,4.33286713 L19.8803878,12.7748252 L19.2990232,13.9210789 C19.2080288,14.1038961 19.1128346,14.2815185 19.0170404,14.4237762 C18.9298457,14.5522478 18.8330516,14.6721279 18.728858,14.7674326 C18.6414633,14.8475524 18.5396695,14.9104895 18.4190769,14.9536464 C18.2912847,14.9988012 18.1322944,15.0235764 17.9471057,15.0235764 C17.6909213,15.0235764 17.4553357,14.9756244 17.2273496,14.8751249 L16.7741772,14.6755245 L16.2130114,16.8723277 L16.5275922,17.0205794 C16.7563783,17.1284715 17.0077629,17.2001998 17.2749466,17.233966 C17.515332,17.2639361 17.7583172,17.2791209 17.9975026,17.2791209 C18.4584745,17.2791209 18.8688495,17.2137862 19.2170282,17.0849151 C19.5662069,16.955045 19.8783879,16.7702298 20.1451716,16.5356643 C20.402356,16.3088911 20.6365417,16.0335664 20.8405292,15.7170829 C21.0293177,15.4255744 21.2197061,15.0427572 21.4044948,14.6843157 L26.846763,4.33286713 L24.2797195,4.33286713 L21.5366868,9.8015984 Z" id="path-5"></path>
        <path d="M37.3553222,9.33986014 C37.309925,9.68451548 37.2057314,9.95764236 37.0451411,10.1524476 C36.8695519,10.366034 36.6615645,10.5372627 36.4265789,10.6619381 C36.1831937,10.791009 35.9300091,10.9172827 35.6740248,10.9602398 C35.3964417,11.0065934 35.1432571,11.0691309 34.9214706,11.0691309 L33.0427852,11.0691309 L33.5149564,7.7008991 L35.5284336,7.7008991 C36.2021925,7.7008991 36.7097616,7.84335664 37.0365417,8.12627373 C37.3311237,8.38161838 37.4355173,8.77622378 37.3553222,9.33986014 Z M37.5905079,4.02597403 C37.5551101,4.28471528 37.4791147,4.5020979 37.3651216,4.67192807 C37.2455289,4.84955045 37.0987379,4.9974026 36.9281483,5.11168831 C36.7549588,5.22757243 36.5525712,5.31748252 36.325785,5.36703297 C36.0784001,5.42217782 35.8162161,5.45554446 35.5462325,5.45554446 L33.8367368,5.45554446 L34.2113139,2.64875125 L36.3687824,2.64875125 C36.8695519,2.64875125 37.2077312,2.81938062 37.3737211,3.04955045 C37.5621096,3.31028971 37.6327053,3.66853147 37.5905079,4.02597403 Z M39.8985672,9.57062937 C39.9615633,9.11708292 39.9443644,8.68531469 39.8485702,8.28731269 C39.7519761,7.88651349 39.5867862,7.52727273 39.3574002,7.21818182 C39.1264142,6.90869131 38.8362319,6.65454545 38.4944528,6.46373626 C38.490053,6.46113886 38.4852533,6.45874126 38.4808536,6.45594406 C38.7522371,6.28831169 39.0014219,6.09290709 39.2260082,5.87092907 C39.7281776,5.37442557 40.0335589,4.72907093 40.1335528,3.95424575 C40.2091482,3.38741259 40.1721505,2.87912088 40.0231596,2.44275724 C39.8707689,1.9964036 39.6209841,1.62337662 39.2804049,1.33326673 C38.9524249,1.05494505 38.5446497,0.793806194 38.0674788,0.654145854 C37.6087068,0.520679321 37.0981379,0.403396603 36.5491714,0.403396603 L32.0562454,0.403396603 L30.2783538,13.3144855 L34.8422755,13.3144855 C35.4606378,13.3144855 36.0582013,13.2011988 36.6183672,13.0461538 C37.1855326,12.8895105 37.7019011,12.6383616 38.1542735,12.3332667 C38.6116456,12.023976 38.9976221,11.6293706 39.3014036,11.1766234 C39.6103847,10.7170829 39.8111725,10.172028 39.8985672,9.57062937 Z" id="path-7"></path>
        <path d="M44.5376843,9.8017982 L43.2247643,4.33286713 L40.5997244,4.33286713 L42.8813853,12.7748252 L42.3000207,13.9210789 C42.2090263,14.1038961 42.1138321,14.2815185 42.0180379,14.4237762 C41.9308432,14.5522478 41.8340491,14.6721279 41.7298555,14.7674326 C41.6424608,14.8475524 41.540867,14.9106893 41.4200744,14.9536464 C41.2922822,14.9988012 41.1332919,15.0235764 40.9481032,15.0235764 C40.6955186,15.0235764 40.4535333,14.9742258 40.2283471,14.8751249 L39.7751747,14.6755245 L39.2140089,16.8723277 L39.5285897,17.0205794 C39.7573758,17.1284715 40.0087604,17.2001998 40.2759441,17.233966 C40.5163295,17.2639361 40.7593147,17.2791209 40.9989001,17.2791209 C41.459472,17.2791209 41.869847,17.2137862 42.2180257,17.0849151 C42.5672044,16.955045 42.8793854,16.7702298 43.1461691,16.5356643 C43.4031535,16.3090909 43.6373392,16.0337662 43.8417267,15.7170829 C44.0309152,15.4247752 44.2213036,15.0417582 44.4054923,14.6843157 L49.8477605,4.33286713 L47.280717,4.33286713 L44.5376843,9.8017982 Z" id="path-9"></path>
        <path d="M59.6267642,5.73626374 L59.3133833,7.98161838 L61.942223,7.98161838 L61.5726456,10.6497502 C61.2596647,10.7892108 60.9018865,10.9306693 60.5055106,11.0115884 C60.0165405,11.1116883 59.4947723,11.1778222 58.9546052,11.1778222 C58.3582416,11.1778222 57.8188745,11.0763237 57.351503,10.8619381 C56.8859313,10.648951 56.4933553,10.3544456 56.1835742,9.97982018 C55.8713932,9.6027972 55.6426072,9.15184815 55.5024157,8.63536464 C55.3610243,8.11588412 55.3310262,7.54245754 55.4128212,6.93026973 C55.4950162,6.33066933 55.6752052,5.75724276 55.9485885,5.22517483 C56.2217718,4.69290709 56.5689507,4.22477522 56.9797256,3.83356643 C57.3885007,3.44455544 57.8684714,3.12987013 58.4072386,2.8985015 C58.9388062,2.67032967 59.5235705,2.55444555 60.1453326,2.55444555 C60.6982989,2.55444555 61.2180672,2.63976024 61.6904384,2.80759241 C62.1416109,2.96823177 62.5609853,3.26053946 62.9367624,3.67652348 L63.221545,3.99200799 L65.1478276,2.20799201 L64.8988428,1.9012987 C64.4648692,1.36743257 63.8759051,0.944255744 63.1481495,0.643356643 C62.434593,0.349050949 61.4974502,0.1998002 60.3633193,0.1998002 C59.4085775,0.1998002 58.4932333,0.371028971 57.6430852,0.708491508 C56.7949369,1.04455544 56.0305835,1.51448551 55.3706237,2.10529471 C54.710664,2.6961039 54.1558978,3.4015984 53.7219243,4.2013986 C53.2855509,5.004995 52.9987684,5.88431568 52.8701762,6.81238761 C52.7395842,7.7022977 52.7729821,8.56263736 52.9699701,9.36903097 C53.168358,10.1828172 53.5201366,10.9082917 54.0147064,11.5246753 C54.513276,12.1454545 55.1716359,12.643956 55.972387,13.005994 C56.7675386,13.3654346 57.7084812,13.5478521 58.7700165,13.5478521 C59.139194,13.5478521 59.5437693,13.5242757 59.9729431,13.4779221 C60.4003171,13.4313686 60.8314908,13.3578422 61.2552649,13.2593407 C61.6720395,13.162038 62.0892141,13.0423576 62.4959893,12.9026973 C62.910764,12.7598402 63.2907408,12.5906094 63.6243205,12.3996004 L63.8027096,12.2921079 L64.7390525,5.73626374 L59.6267642,5.73626374 Z" id="path-11"></path>
        <path d="M70.8848778,4.35864136 C70.650492,4.27592408 70.3837083,4.23376623 70.0913261,4.23376623 C69.519361,4.23376623 68.9547954,4.38421578 68.4136284,4.68031968 C68.289636,4.74825175 68.1720432,4.76983017 68.0608499,4.84795205 L68.1240461,4.33286713 L65.7669898,4.33286713 L64.5432644,13.3144855 L66.9013207,13.3144855 L67.5048838,8.91688312 C67.6132772,8.14585415 67.8568624,7.56223776 68.2294397,7.21698302 C68.5996171,6.87372627 69.0877873,6.6983017 69.7217487,6.6983017 C69.8179428,6.6983017 69.913137,6.7028971 70.0039315,6.72027972 C70.1113249,6.74045954 70.2207182,6.76383616 70.3329114,6.79440559 L70.7728846,6.91328671 L71.2238571,4.47912088 L70.8848778,4.35864136 Z" id="path-13"></path>
        <path d="M77.8498531,8.78221778 C77.8002561,9.13746254 77.6986623,9.46893107 77.5476715,9.76703297 C77.3966807,10.0639361 77.2090921,10.3188811 76.9895055,10.5246753 C76.7707189,10.7294705 76.5119346,10.8943057 76.2195525,11.0141858 C75.9307701,11.1324675 75.6093897,11.1926074 75.2638107,11.1926074 C74.9232315,11.1926074 74.6228498,11.1348651 74.3722651,11.0201798 C74.1238803,10.9070929 73.930892,10.7604396 73.7817011,10.5706294 C73.6327102,10.3826174 73.5277166,10.1470529 73.4687202,9.87012987 C73.406724,9.57842158 73.3999244,9.25174825 73.4489214,8.8981019 C73.4985184,8.54165834 73.5979123,8.20839161 73.7453033,7.90829171 C73.8890946,7.61538462 74.0750832,7.36303696 74.2974697,7.15904096 C74.522056,6.95304695 74.7850399,6.78741259 75.078822,6.66633367 C75.3682044,6.54785215 75.6897848,6.48791209 76.0349637,6.48791209 C76.3739431,6.48791209 76.670125,6.54545455 76.9149101,6.65874126 C77.1608951,6.77302697 77.3560832,6.92207792 77.5120737,7.11368631 C77.6666642,7.3046953 77.7706579,7.53246753 77.8298543,7.80979021 C77.8916505,8.1026973 77.8986501,8.42997003 77.8498531,8.78221778 Z M79.3795598,5.60599401 C79.0107823,5.18041958 78.5536101,4.84175824 78.0200427,4.5992008 C77.4866752,4.35664336 76.8865118,4.23376623 76.2363514,4.23376623 C75.5921907,4.23376623 74.9668289,4.35444555 74.3770648,4.59180819 C73.7945003,4.82657343 73.2609329,5.15384615 72.7905616,5.56443556 C72.3211902,5.97482517 71.9248143,6.45754246 71.6126334,6.999001 C71.2958527,7.54885115 71.0912652,8.14925075 71.0072703,8.77622378 C70.9090763,9.41818182 70.9442741,10.0313686 71.1120639,10.599001 C71.2798537,11.1646354 71.5480373,11.6639361 71.9102152,12.0827173 C72.2731931,12.5028971 72.7313652,12.8391608 73.2719322,13.0821179 C73.8106993,13.3240759 74.4128626,13.4467532 75.062423,13.4467532 C75.7059838,13.4467532 76.3313456,13.3260739 76.9215097,13.0885115 C77.5044741,12.8533467 78.0378416,12.5296703 78.506013,12.1264735 C78.9775843,11.7202797 79.3727602,11.234965 79.6803414,10.6851149 C79.9887226,10.1340659 80.1939101,9.53526474 80.2923041,8.8961039 C80.3776989,8.25754246 80.3395012,7.65094905 80.178911,7.09290709 C80.0169209,6.53226773 79.7481373,6.03176823 79.3795598,5.60599401 Z" id="path-15"></path>
        <path d="M87.214882,4.33286713 L86.5945198,8.84635365 C86.4761271,9.66973027 86.2125431,10.2899101 85.8117676,10.6401598 C85.4061923,10.9948052 84.9536199,11.18002 84.427652,11.18002 C84.2394634,11.18002 84.0598744,11.1572428 83.8926846,11.0997003 C83.7476934,11.04995 83.6307006,10.9764236 83.5325066,10.8669331 C83.4355125,10.7584416 83.3635169,10.6075924 83.3187196,10.4151848 C83.2695226,10.204995 83.2687226,9.88851149 83.3175197,9.56883117 L84.0384757,4.33286713 L81.6810195,4.33286713 L80.9080666,9.87852148 C80.8344711,10.4557443 80.8546698,10.9964036 80.9688629,11.433966 C81.0868557,11.8873127 81.2864435,12.2805195 81.5624267,12.5766234 C81.83621,12.8721279 82.1745894,13.0993007 82.5677654,13.2393606 C82.9411426,13.3726274 83.3523175,13.4433566 83.7904908,13.4433566 C84.4704494,13.4433566 85.100011,13.2961039 85.6619767,13.0021978 C85.8015682,12.9290709 85.9335601,12.8853147 86.0579526,12.8 L85.9921566,13.3144855 L88.3488129,13.3144855 L89.5729382,4.33286713 L87.214882,4.33286713 Z" id="path-17"></path>
        <path d="M96.7818987,8.78181818 C96.7323017,9.13826174 96.6303079,9.46973027 96.4793171,9.76723277 C96.3287263,10.0643357 96.1409377,10.3188811 95.9211511,10.5248751 C95.7029645,10.7292707 95.4439802,10.8939061 95.1515981,11.0141858 C94.8630157,11.1324675 94.5412353,11.1926074 94.1956564,11.1926074 C93.8550771,11.1926074 93.5554954,11.1348651 93.3045107,11.0201798 C93.0561258,10.9070929 92.8629376,10.7604396 92.7135467,10.5706294 C92.5649558,10.3826174 92.4599622,10.1470529 92.4011658,9.87012987 C92.3385696,9.57782218 92.33197,9.25094905 92.381167,8.8981019 C92.430564,8.54165834 92.5301579,8.20839161 92.677149,7.90829171 C92.8209402,7.61558442 93.0069288,7.36363636 93.2297153,7.15904096 C93.4543016,6.95304695 93.7170855,6.78741259 94.0110676,6.66633367 C94.29985,6.54785215 94.6216304,6.48791209 94.9670093,6.48791209 C95.3061886,6.48791209 95.6025706,6.54545455 95.8471557,6.65874126 C96.0929407,6.77302697 96.2881288,6.92207792 96.4437193,7.11368631 C96.5987098,7.3046953 96.7025035,7.53246753 96.7616999,7.81038961 C96.8238961,8.1026973 96.8304957,8.42957043 96.7818987,8.78181818 Z M99.1587537,7.10649351 C99.0275617,6.53946054 98.7927761,6.03476523 98.4599963,5.60619381 C98.1224169,5.17262737 97.6824438,4.83076923 97.152876,4.59040959 C96.6303079,4.35384615 96.0247448,4.23376623 95.3529858,4.23376623 C94.7606219,4.23376623 94.1620584,4.36443556 93.5742943,4.62217782 C93.3445083,4.72287712 93.1283214,4.78921079 92.9267337,4.92287712 L92.9979294,4.33286713 L90.6436729,4.33286713 L88.7481885,18.0861139 L91.1060448,18.0861139 L91.8501994,12.7088911 C92.020389,12.8525475 92.2131772,12.9544456 92.4277642,13.0645355 C92.954732,13.3346653 93.5440961,13.4593407 94.1788574,13.4593407 C94.8448168,13.4593407 95.4733785,13.3352647 96.0467435,13.1028971 C96.6179087,12.8719281 97.1296775,12.5440559 97.5676508,12.1354645 C98.0040241,11.7286713 98.3690019,11.2417582 98.6529846,10.6907093 C98.9355673,10.1420579 99.1273556,9.54045954 99.2239498,8.8973027 C99.3087446,8.26673327 99.2867459,7.66393606 99.1587537,7.10649351 Z" id="path-19"></path>
    </defs>
    <g id="Page-1" stroke="none" stroke-width="1" fill="none" fill-rule="evenodd">
        <g id="PBG-Logo-blue-(vector-free)" transform="translate(8.000000, 9.000000)">
            <mask id="mask-2" fill="white">
                <use xlink:href="#path-1"></use>
            </mask>
            <g id="Shape"></g>
            <rect id="Rectangle-path" fill="#FFFFFF" fill-rule="nonzero" mask="url(#mask-2)" x="-1.79989025" y="-1.59460539" width="14.1185391" height="16.9070929"></rect>
            <mask id="mask-4" fill="white">
                <use xlink:href="#path-3"></use>
            </mask>
            <g id="Shape"></g>
            <rect id="Rectangle-path" fill="#FFFFFF" fill-rule="nonzero" mask="url(#mask-4)" x="7.26375709" y="2.23576424" width="12.2584525" height="13.2087912"></rect>
            <mask id="mask-6" fill="white">
                <use xlink:href="#path-5"></use>
            </mask>
            <g id="Shape"></g>
            <rect id="Rectangle-path" fill="#FFFFFF" fill-rule="nonzero" mask="url(#mask-6)" x="14.2131333" y="2.33486513" width="14.6335077" height="16.9420579"></rect>
            <mask id="mask-8" fill="white">
                <use xlink:href="#path-7"></use>
            </mask>
            <g id="Shape"></g>
            <rect id="Rectangle-path" fill="#FFFFFF" fill-rule="nonzero" mask="url(#mask-8)" x="28.2784757" y="-1.59460539" width="13.8929529" height="16.9070929"></rect>
            <mask id="mask-10" fill="white">
                <use xlink:href="#path-9"></use>
            </mask>
            <g id="Shape"></g>
            <rect id="Rectangle-path" fill="#FFFFFF" fill-rule="nonzero" mask="url(#mask-10)" x="37.2141308" y="2.33486513" width="14.6335077" height="16.9420579"></rect>
            <mask id="mask-12" fill="white">
                <use xlink:href="#path-11"></use>
            </mask>
            <g id="Shape"></g>
            <rect id="Rectangle-path" fill="#FFFFFF" fill-rule="nonzero" mask="url(#mask-12)" x="50.7923029" y="-1.7982018" width="16.3554027" height="17.3440559"></rect>
            <mask id="mask-14" fill="white">
                <use xlink:href="#path-13"></use>
            </mask>
            <g id="Shape"></g>
            <rect id="Rectangle-path" fill="#FFFFFF" fill-rule="nonzero" mask="url(#mask-14)" x="62.5433864" y="2.23576424" width="10.6803488" height="13.0767233"></rect>
            <mask id="mask-16" fill="white">
                <use xlink:href="#path-15"></use>
            </mask>
            <g id="Shape"></g>
            <rect id="Rectangle-path" fill="#FFFFFF" fill-rule="nonzero" mask="url(#mask-16)" x="68.9531955" y="2.23576424" width="13.3833839" height="13.208991"></rect>
            <mask id="mask-18" fill="white">
                <use xlink:href="#path-17"></use>
            </mask>
            <g id="Shape"></g>
            <rect id="Rectangle-path" fill="#FFFFFF" fill-rule="nonzero" mask="url(#mask-18)" x="78.8649912" y="2.33486513" width="12.7078251" height="13.1064935"></rect>
            <mask id="mask-20" fill="white">
                <use xlink:href="#path-19"></use>
            </mask>
            <g id="Shape"></g>
            <rect id="Rectangle-path" fill="#FFFFFF" fill-rule="nonzero" mask="url(#mask-20)" x="86.7483105" y="2.23576424" width="14.5261143" height="17.8481518"></rect>
        </g>
    </g>
</svg>